# xmcd
# 
# Track frame offsets:
#     183
#     33903
#     60760
#     78058
#     101898
#     128870
#     153648
#     184908
# 
# Disc length: 2735
# 
# Revision: 1
# Processed by: cddbd v1.5.2PL0 Copyright (c) Steve Scherf et al.
# Submitted via: fre:ac v1.1beta1pre4
# 
DISCID=5c0aad08
DTITLE=ヴァンゲリス - 南極物語　オリジナル・サウンドトラック
DYEAR=1983
DGENRE=
TTITLE0=「南極物語」メイン・テーマ
TTITLE1=極地のこだま
TTITLE2=生きるための戦い
TTITLE3=白夜の歌
TTITLE4=生命の神秘
TTITLE5=南極の想い出
TTITLE6=未知とロマンの南極
TTITLE7=奇跡の生存
EXTD=
EXTT0=
EXTT1=
EXTT2=
EXTT3=
EXTT4=
EXTT5=
EXTT6=
EXTT7=
PLAYORDER=
